<svg width="1172" height="314" viewBox="0 0 1172 314" fill="none" xmlns="http://www.w3.org/2000/svg">
<g filter="url(#filter0_b_14_759)">
<path d="M1 246.398V26.0007C1 12.1936 12.1929 1.00073 26 1.00073H1087.77C1093.32 1.00073 1098.72 2.85048 1103.11 6.25803L1161.34 51.4941C1167.43 56.2301 1171 63.5169 1171 71.2368V288.501C1171 302.308 1159.81 313.501 1146 313.501H825.744H82.9134C77.5603 313.501 72.3487 311.783 68.0452 308.599L11.1319 266.496C4.75927 261.782 1 254.325 1 246.398Z" fill="#1A1A20" fill-opacity="0.94"/>
<path d="M1 246.398V26.0007C1 12.1936 12.1929 1.00073 26 1.00073H1087.77C1093.32 1.00073 1098.72 2.85048 1103.11 6.25803L1161.34 51.4941C1167.43 56.2301 1171 63.5169 1171 71.2368V288.501C1171 302.308 1159.81 313.501 1146 313.501H825.744H82.9134C77.5603 313.501 72.3487 311.783 68.0452 308.599L11.1319 266.496C4.75927 261.782 1 254.325 1 246.398Z" stroke="white"/>
</g>
<defs>
<filter id="filter0_b_14_759" x="-99.5" y="-99.4993" width="1371" height="513.5" filterUnits="userSpaceOnUse" color-interpolation-filters="sRGB">
<feFlood flood-opacity="0" result="BackgroundImageFix"/>
<feGaussianBlur in="BackgroundImageFix" stdDeviation="50"/>
<feComposite in2="SourceAlpha" operator="in" result="effect1_backgroundBlur_14_759"/>
<feBlend mode="normal" in="SourceGraphic" in2="effect1_backgroundBlur_14_759" result="shape"/>
</filter>
</defs>
</svg>
