<svg width="136" height="39" viewBox="0 0 136 39" fill="none" xmlns="http://www.w3.org/2000/svg">
<g clip-path="url(#clip0_42_13)">
<path d="M4.62857 25.9558H1.40845V36.4368H4.62857V25.9558Z" fill="white"/>
<path d="M12.9592 36.434H9.16229L5.85447 32.549C5.55581 32.164 5.39331 31.6873 5.39331 31.1963C5.39331 30.7053 5.55581 30.2287 5.85447 29.8436L9.15867 25.9558H12.9556L8.29623 31.1958L12.9592 36.434Z" fill="white"/>
<path d="M18.5325 31.9087V30.6478H23.1104C23.0865 30.4221 23.0491 30.1982 22.9983 29.9772C22.4613 27.6869 20.4671 25.9861 18.0859 25.9861C15.2943 25.9861 13.0315 28.3262 13.0315 31.2114C13.0315 34.0966 15.2915 36.4366 18.0859 36.4366C19.2022 36.4324 20.2859 36.0521 21.1686 35.355C22.0514 34.6578 22.6838 33.6827 22.9676 32.5811C23.0253 32.3604 23.0688 32.1361 23.0978 31.9096L18.5325 31.9087ZM18.085 35.7642C15.6559 35.7642 13.6806 33.7211 13.6806 31.2104C13.6806 28.6997 15.6568 26.6567 18.0859 26.6567C19.0515 26.6616 19.989 26.9888 20.7553 27.5884C21.5215 28.188 22.0743 29.0269 22.3294 29.9772H17.7532V32.5811H22.286C22.0096 33.499 21.453 34.3028 20.6975 34.8754C19.942 35.448 19.027 35.7594 18.0859 35.7642H18.085Z" fill="white"/>
<path d="M28.0951 34.3283V25.9854H25.0051V34.759C25.0032 35.2005 25.173 35.6248 25.4771 35.9388C25.7813 36.2528 26.1952 36.4309 26.6279 36.4341H32.4281V34.3283H28.0951Z" fill="white"/>
<path d="M37.6786 27.9076V27.5608H36.714V26.667C36.9532 26.5909 37.1574 26.4294 37.2892 26.2121C37.421 25.9947 37.4715 25.7362 37.4315 25.4839C37.3915 25.2316 37.2636 25.0025 37.0714 24.8386C36.8791 24.6748 36.6354 24.5872 36.3849 24.592C36.1345 24.5967 35.8941 24.6935 35.708 24.8646C35.5219 25.0356 35.4025 25.2694 35.3717 25.523C35.3409 25.7767 35.4008 26.0331 35.5405 26.2453C35.6801 26.4575 35.8901 26.6111 36.1318 26.6781V27.5608H35.1266V27.9076H33.8257V36.4341H38.9786V27.9076H37.6786Z" fill="white"/>
<path d="M17.171 0.103271L0 21.2608H8.90461L26.0756 0.103271H17.171Z" fill="white"/>
<path d="M38.6678 5.92073H31.4944L32.3161 4.90796H39.4895L38.6678 5.92073Z" fill="#E30613"/>
<path d="M36.8009 8.22206H29.6257L29.7161 8.11138L30.8218 6.74902H37.9961L36.8009 8.22206Z" fill="#E30613"/>
<path d="M34.4097 11.2603H27.2363C27.3209 11.0933 27.423 10.9362 27.541 10.7917L28.9531 9.05029H36.1283L34.7144 10.7917C34.5964 10.9364 34.494 11.0934 34.4088 11.2603" fill="#E30613"/>
<path d="M31.7473 3.802H24.5739L21.0763 8.11135L18.9012 10.7918C18.5053 11.2819 18.2888 11.8972 18.2888 12.5323C18.2888 13.1674 18.5053 13.7827 18.9012 14.2728L21.0763 16.9523L24.5739 21.2617H31.7473L26.0755 14.2728C25.6796 13.7827 25.4631 13.1674 25.4631 12.5323C25.4631 11.8972 25.6796 11.2819 26.0755 10.7918L31.7473 3.802Z" fill="#E30613"/>
<path d="M33.2138 3.802L32.7717 4.3462H39.946L40.3872 3.802H33.2138Z" fill="#CF2E2B"/>
<path d="M40.387 21.2608H33.2136L29.716 16.9514L27.5463 14.271C27.3028 13.9704 27.1253 13.6201 27.0256 13.2437C26.926 12.8672 26.9066 12.4734 26.9686 12.0886H34.143C34.0802 12.4729 34.0987 12.8665 34.1972 13.2429C34.2958 13.6193 34.4721 13.9698 34.7143 14.271L40.387 21.2608Z" fill="#E30613"/>
<path d="M62.5853 0L55.2582 10.1056H53.3597V0H48.7122V24.5712H53.3597V14.3974H55.6993L63.4332 24.5712H68.6567L59.2268 11.8701L67.8765 0H62.5853Z" fill="#E30613"/>
<path d="M71.0652 0V24.5712H87.7869V20.3836H75.7462V13.9814H85.8875V10.1056H75.7462V4.1876H87.4822V0H71.0652Z" fill="#E30613"/>
<path d="M99.3871 7.92505C99.1376 11.0857 98.7983 13.7391 98.3692 15.8852C97.9401 18.0312 97.3524 19.7675 96.6063 21.0938C95.8596 22.4202 94.9324 23.3718 93.8247 23.9486C92.7169 24.5254 91.3609 24.8138 89.7566 24.8138L89.4854 20.5229C90.191 20.4718 90.8784 20.2714 91.504 19.9344C92.0808 19.6116 92.5783 18.977 92.9966 18.0306C93.4148 17.0843 93.7707 15.7287 94.0642 13.9639C94.3583 12.1997 94.6295 9.8522 94.8778 6.9215L95.4546 0.00366211H110.04V24.5712H105.391V4.18757H99.6954L99.3871 7.92505Z" fill="#E30613"/>
<path d="M132.424 0L120.145 17.2346V0H115.499V24.5712H119.229L131.339 7.71754V24.5712H135.985V0H132.424Z" fill="#E30613"/>
<path d="M48.7078 36.432L50.3187 36.4338L50.3269 29.3675L53.9836 29.3721L53.9755 36.4384L55.5865 36.4403L55.5964 27.9221L48.7177 27.9138L48.7078 36.432Z" fill="#E30613"/>
<path d="M60.4791 35.1988C60.7059 35.2009 60.93 35.1478 61.1327 35.0439C61.3301 34.942 61.5044 34.799 61.6444 34.6242C61.7893 34.4421 61.901 34.235 61.9743 34.0126C62.0531 33.7813 62.0931 33.5381 62.0928 33.2932C62.095 33.0412 62.0515 32.7911 61.9644 32.5553C61.8819 32.3354 61.7592 32.1335 61.6028 31.9604C61.45 31.7925 61.2655 31.6579 61.0604 31.5647C60.8479 31.4669 60.6172 31.4175 60.3842 31.4198C60.2283 31.4206 60.0736 31.4468 59.9258 31.4973C59.7704 31.5482 59.6235 31.6228 59.4901 31.7187C59.3561 31.8142 59.2346 31.9267 59.1285 32.0535C59.0249 32.1781 58.9432 32.3201 58.8871 32.4732V33.949C59.0208 34.3005 59.2439 34.6094 59.5335 34.8437C59.798 35.0717 60.1328 35.1974 60.4791 35.1988ZM61.007 36.5676C60.5633 36.5771 60.1256 36.4622 59.7414 36.2356C59.3857 36.0207 59.0936 35.7115 58.8961 35.3409L58.8916 38.9999H57.3159L57.3259 30.158H58.7018V31.2372C58.9218 30.8782 59.2251 30.5801 59.585 30.3693C59.9654 30.1521 60.3959 30.0429 60.8317 30.0529C61.23 30.0492 61.6241 30.1375 61.9843 30.3111C62.3303 30.4793 62.6398 30.7164 62.8946 31.0085C63.1553 31.3119 63.3583 31.6622 63.4931 32.0415C63.6373 32.4438 63.7087 32.8695 63.7037 33.2978C63.706 33.7342 63.6379 34.168 63.5021 34.5818C63.3792 34.9613 63.1896 35.3148 62.9425 35.625C62.7092 35.9153 62.4184 36.152 62.0891 36.3195C61.7518 36.4887 61.3802 36.5746 61.0043 36.5704" fill="#E30613"/>
<path d="M66.0667 33.3217C66.0632 33.5814 66.1048 33.8397 66.1896 34.0845C66.2657 34.3024 66.381 34.5038 66.5295 34.6785C66.6712 34.844 66.8456 34.977 67.0412 35.0687C67.2396 35.1618 67.4556 35.2094 67.674 35.208C67.8915 35.21 68.1067 35.1639 68.3051 35.073C68.5034 34.9821 68.6801 34.8485 68.823 34.6813C68.9725 34.5051 69.0882 34.3017 69.1639 34.0818C69.2495 33.8355 69.2918 33.5757 69.2886 33.3143C69.2916 33.0568 69.25 32.8008 69.1657 32.558C69.0906 32.3377 68.9752 32.134 68.8258 31.9575C68.6843 31.7923 68.5102 31.6593 68.315 31.5674C68.1164 31.4749 67.9005 31.4274 67.6822 31.4281C67.4633 31.4266 67.2469 31.4758 67.0494 31.572C66.8541 31.6664 66.6799 31.8007 66.5377 31.9667C66.3876 32.1428 66.2717 32.3462 66.196 32.5663C66.1111 32.8087 66.0689 33.0644 66.0712 33.3217M67.6786 36.575C67.2135 36.5828 66.7519 36.4927 66.3225 36.3102C65.9394 36.1451 65.5935 35.9015 65.3064 35.5945C65.0287 35.2943 64.8115 34.9415 64.6673 34.5559C64.5182 34.1616 64.4427 33.7424 64.4449 33.3199C64.4434 32.8935 64.5198 32.4707 64.67 32.0728C64.815 31.6875 65.0331 31.3352 65.3118 31.0361C65.5997 30.7297 65.9461 30.4871 66.3297 30.3231C66.7593 30.1417 67.2209 30.0525 67.6858 30.0611C68.1477 30.0532 68.6061 30.1437 69.0319 30.3268C69.4125 30.4927 69.7561 30.7359 70.0417 31.0416C70.3193 31.3419 70.5368 31.6947 70.6817 32.0802C70.8313 32.4784 70.9064 32.9017 70.9032 33.3282C70.9049 33.7506 70.8286 34.1697 70.6781 34.5632C70.5345 34.9474 70.3197 35.2998 70.0453 35.6009C69.76 35.9076 69.4152 36.1501 69.0328 36.313C68.6032 36.4946 68.1416 36.5838 67.6767 36.575" fill="#E30613"/>
<path d="M75.4974 33.5258L77.3236 30.1803L78.9345 30.1831L78.9273 36.4691L77.4221 36.4672L77.4266 32.6882L75.8599 35.5181L75.1186 35.5172L73.5583 32.6836L73.5538 36.4626L72.0486 36.4608L72.0558 30.1738L73.6785 30.1766L75.4974 33.5258Z" fill="#E30613"/>
<path d="M82.2613 31.4587H82.9195L85.4634 27.9591L87.2976 27.961L84.2945 32.073L87.558 36.4801L85.7472 36.4773L83.0704 32.9474L82.2595 32.9464L82.255 36.4736L80.644 36.4709L80.654 27.9536L82.265 27.9545L82.2613 31.4587Z" fill="#E30613"/>
<path d="M89.4438 33.3503C89.4395 33.61 89.4809 33.8683 89.5658 34.1131C89.6423 34.3308 89.7575 34.5322 89.9057 34.7072C90.0474 34.8726 90.2218 35.0056 90.4174 35.0973C90.6158 35.1904 90.8318 35.238 91.0502 35.2366C91.2674 35.2386 91.4824 35.1926 91.6804 35.1017C91.8785 35.0107 92.0549 34.8771 92.1974 34.7099C92.3469 34.5335 92.4628 34.3302 92.5391 34.1104C92.624 33.8639 92.6659 33.6042 92.663 33.343C92.6663 33.0855 92.6249 32.8294 92.541 32.5866C92.4653 32.3664 92.3496 32.1627 92.2001 31.9861C92.0579 31.8189 91.8819 31.685 91.6842 31.5936C91.4865 31.5022 91.2718 31.4555 91.0547 31.4567C90.8358 31.4552 90.6195 31.5044 90.4219 31.6006C90.2268 31.6952 90.0526 31.8295 89.9103 31.9954C89.7602 32.1714 89.6443 32.3748 89.5685 32.5949C89.4844 32.8374 89.4425 33.0931 89.4447 33.3503M91.0511 36.6036C90.5875 36.612 90.1271 36.5228 89.6987 36.3416C89.3161 36.1752 88.971 35.9306 88.6844 35.6231C88.4062 35.3246 88.1882 34.9733 88.0425 34.5891C87.7456 33.7891 87.7456 32.906 88.0425 32.1061C88.1875 31.7207 88.4057 31.3684 88.6844 31.0693C88.9726 30.763 89.3194 30.5203 89.7032 30.3563C90.1328 30.1747 90.5944 30.0855 91.0593 30.0943C91.5212 30.0864 91.9797 30.1769 92.4053 30.36C92.7861 30.5257 93.1297 30.7689 93.4151 31.0748C93.6931 31.3749 93.9106 31.7278 94.0552 32.1134C94.2046 32.5117 94.28 32.9349 94.2776 33.3614C94.2786 33.7839 94.2019 34.2028 94.0516 34.5965C93.908 34.9807 93.6932 35.333 93.4188 35.6341C93.1336 35.9406 92.7891 36.1831 92.4072 36.3462C91.9776 36.5276 91.516 36.6168 91.0511 36.6082" fill="#E30613"/>
<path d="M98.8736 33.5544L100.7 30.2089L102.311 30.2117L102.303 36.4977L100.798 36.4958L100.803 32.7169L99.2361 35.5467L98.4949 35.5458L96.9345 32.7122L96.93 36.4912L95.4248 36.4894L95.432 30.2034L97.0547 30.2052L98.8736 33.5544Z" fill="#E30613"/>
<path d="M109.253 36.5068L107.689 36.504L107.695 31.6089L105.425 31.6071L105.42 36.5022L103.856 36.4994L103.863 30.2134L109.261 30.2198L109.253 36.5068Z" fill="#E30613"/>
<path d="M110.149 35.1425C110.343 35.1354 110.533 35.0867 110.707 34.9996C110.871 34.8949 110.998 34.7394 111.069 34.5559C111.187 34.2694 111.27 33.9693 111.317 33.6621C111.384 33.2821 111.453 32.7843 111.524 32.1688L111.738 30.2253L116.054 30.2309L116.047 36.5169H114.483L114.488 31.5729H113.112L112.994 32.5202C112.922 33.1809 112.807 33.836 112.65 34.4812C112.55 34.9182 112.377 35.3342 112.138 35.7107C111.949 35.9981 111.68 36.2214 111.366 36.3518C111.004 36.4861 110.623 36.5566 110.237 36.5602L110.149 35.1425Z" fill="#E30613"/>
<path d="M122.043 32.8504C122.023 32.4193 121.84 32.0128 121.533 31.7159C121.306 31.5096 121.028 31.3712 120.73 31.3159C120.431 31.2605 120.123 31.2904 119.84 31.4023C119.659 31.4758 119.493 31.5834 119.351 31.7196C119.207 31.8604 119.089 32.027 119.004 32.2112C118.912 32.4108 118.858 32.6265 118.844 32.8467L122.043 32.8504ZM120.439 36.6396C119.98 36.6462 119.524 36.558 119.099 36.3804C118.715 36.2188 118.368 35.9797 118.077 35.6775C117.795 35.3808 117.573 35.0296 117.426 34.6445C117.273 34.2512 117.196 33.8316 117.198 33.4085C117.195 32.976 117.272 32.5469 117.423 32.143C117.567 31.7542 117.787 31.3996 118.07 31.1007C118.363 30.7941 118.713 30.5515 119.1 30.3877C119.53 30.2074 119.991 30.1183 120.456 30.1257C120.918 30.1178 121.377 30.2082 121.802 30.3914C122.182 30.5564 122.525 30.7973 122.812 31.0998C123.09 31.3964 123.305 31.748 123.445 32.1328C123.589 32.5241 123.662 32.9388 123.661 33.3568C123.661 33.461 123.661 33.5607 123.655 33.6566C123.652 33.7373 123.642 33.8176 123.625 33.8964L118.862 33.8909C118.88 34.1199 118.94 34.3435 119.038 34.5504C119.126 34.7366 119.249 34.9037 119.399 35.0429C119.547 35.1788 119.718 35.2849 119.905 35.3556C120.093 35.4274 120.292 35.4643 120.492 35.4645C120.803 35.4654 121.109 35.3851 121.38 35.2311C121.636 35.1008 121.838 34.8822 121.951 34.614L123.307 34.9996C123.068 35.4934 122.69 35.9041 122.223 36.1802C121.725 36.4877 121.131 36.6414 120.44 36.6414" fill="#E30613"/>
<path d="M128.498 30.2429L130.191 30.2457L127.789 33.2895L130.372 36.5317L128.584 36.5298L126.682 34.104H126.271L126.268 36.5271L124.716 36.5252L124.723 30.2383L126.276 30.2401L126.273 32.7361H126.625L128.498 30.2429Z" fill="#E30613"/>
<path d="M130.589 31.6375L132.518 31.6402L132.512 36.5353L134.076 36.5362L134.082 31.6421L135.998 31.6439L136 30.253L130.59 30.2456L130.589 31.6375Z" fill="#E30613"/>
</g>
<defs>
<clipPath id="clip0_42_13">
<rect width="136" height="39" fill="white"/>
</clipPath>
</defs>
</svg>
