<svg width="257" height="52" viewBox="0 0 257 52" fill="none" xmlns="http://www.w3.org/2000/svg">
<path d="M249 10H53.2239C46.7033 10 40.4408 12.5476 35.7719 17.0995L0.999996 51" stroke="white"/>
<path d="M257 10.0006C251.754 10.0006 247.501 5.52266 247.501 1.1327e-07C247.501 5.52266 243.26 10.0006 238 10.0006C238.065 10.0006 238.13 10.0006 238.195 10.0006C238.13 10.0006 238.065 10.0006 238 10.0006C243.246 10.0006 247.501 14.4773 247.501 20C247.501 14.4773 251.743 10.0006 257 10.0006C256.935 10.0006 256.87 10.0006 256.805 10.0006C256.87 10.0018 256.935 10.0006 257 10.0006Z" fill="white"/>
</svg>
