<svg width="152" height="168" viewBox="0 0 152 168" fill="none" xmlns="http://www.w3.org/2000/svg">
<g filter="url(#filter0_f_14_1439)">
<path d="M147.726 34.3814C125.94 27.4699 80.7698 28.1975 65.7153 69.3145C48.5245 116.266 15.3422 131.273 4.99989 133.343" stroke="url(#paint0_linear_14_1439)"/>
</g>
<path d="M147.726 34.3814C125.94 27.4699 80.7698 28.1975 65.7153 69.3145C48.5245 116.266 15.3422 131.273 4.99989 133.343" stroke="url(#paint1_linear_14_1439)"/>
<g filter="url(#filter1_d_14_1439)">
<path d="M47.2884 102.558C47.4536 102.431 47.6839 102.432 47.8481 102.56V102.56C48.0124 102.688 48.069 102.911 47.9857 103.102L45.7074 108.326C45.2053 109.477 43.7523 109.846 42.7625 109.073V109.073C41.7727 108.3 41.7778 106.801 42.7729 106.035L47.2884 102.558Z" fill="#4A4ADB"/>
</g>
<defs>
<filter id="filter0_f_14_1439" x="0.901741" y="26.5913" width="150.975" height="111.242" filterUnits="userSpaceOnUse" color-interpolation-filters="sRGB">
<feFlood flood-opacity="0" result="BackgroundImageFix"/>
<feBlend mode="normal" in="SourceGraphic" in2="BackgroundImageFix" result="shape"/>
<feGaussianBlur stdDeviation="2" result="effect1_foregroundBlur_14_1439"/>
</filter>
<filter id="filter1_d_14_1439" x="36.0233" y="96.4631" width="18.0005" height="19.0173" filterUnits="userSpaceOnUse" color-interpolation-filters="sRGB">
<feFlood flood-opacity="0" result="BackgroundImageFix"/>
<feColorMatrix in="SourceAlpha" type="matrix" values="0 0 0 0 0 0 0 0 0 0 0 0 0 0 0 0 0 0 127 0" result="hardAlpha"/>
<feOffset/>
<feGaussianBlur stdDeviation="3"/>
<feComposite in2="hardAlpha" operator="out"/>
<feColorMatrix type="matrix" values="0 0 0 0 0.508333 0 0 0 0 0.508333 0 0 0 0 1 0 0 0 1 0"/>
<feBlend mode="normal" in2="BackgroundImageFix" result="effect1_dropShadow_14_1439"/>
<feBlend mode="normal" in="SourceGraphic" in2="effect1_dropShadow_14_1439" result="shape"/>
</filter>
<linearGradient id="paint0_linear_14_1439" x1="22.5" y1="137.5" x2="115" y2="36.4995" gradientUnits="userSpaceOnUse">
<stop stop-color="#2132B0"/>
<stop offset="1" stop-color="#2132B0" stop-opacity="0"/>
</linearGradient>
<linearGradient id="paint1_linear_14_1439" x1="5" y1="136" x2="110.5" y2="29.9995" gradientUnits="userSpaceOnUse">
<stop stop-color="#475BF5"/>
<stop offset="1" stop-color="#475BF5" stop-opacity="0"/>
</linearGradient>
</defs>
</svg>
