<svg width="97" height="190" viewBox="0 0 97 190" fill="none" xmlns="http://www.w3.org/2000/svg">
<g filter="url(#filter0_f_14_1430)">
<path d="M30 185C56.5002 157.5 35.3696 124.391 59.0001 90.5002C82.6306 56.6097 72.0001 11.0002 62.8577 4.99982" stroke="url(#paint0_linear_14_1430)"/>
</g>
<path d="M30 185C56.5002 157.5 35.3696 124.391 59.0001 90.5002C82.6306 56.6097 72.0001 11.0002 62.8577 4.99982" stroke="url(#paint1_linear_14_1430)"/>
<g filter="url(#filter1_d_14_1430)">
<path d="M45.7425 132.57C45.8083 132.372 45.9997 132.244 46.2077 132.259V132.259C46.4156 132.273 46.5873 132.427 46.625 132.632L47.6555 138.237C47.8826 139.472 46.8836 140.589 45.6308 140.502V140.502C44.378 140.414 43.5445 139.168 43.9413 137.977L45.7425 132.57Z" fill="#FFCF88"/>
</g>
<defs>
<filter id="filter0_f_14_1430" x="25.64" y="0.581787" width="52.2054" height="188.765" filterUnits="userSpaceOnUse" color-interpolation-filters="sRGB">
<feFlood flood-opacity="0" result="BackgroundImageFix"/>
<feBlend mode="normal" in="SourceGraphic" in2="BackgroundImageFix" result="shape"/>
<feGaussianBlur stdDeviation="2" result="effect1_foregroundBlur_14_1430"/>
</filter>
<filter id="filter1_d_14_1430" x="37.8416" y="126.257" width="15.8462" height="20.249" filterUnits="userSpaceOnUse" color-interpolation-filters="sRGB">
<feFlood flood-opacity="0" result="BackgroundImageFix"/>
<feColorMatrix in="SourceAlpha" type="matrix" values="0 0 0 0 0 0 0 0 0 0 0 0 0 0 0 0 0 0 127 0" result="hardAlpha"/>
<feOffset/>
<feGaussianBlur stdDeviation="3"/>
<feComposite in2="hardAlpha" operator="out"/>
<feColorMatrix type="matrix" values="0 0 0 0 1 0 0 0 0 0.640336 0 0 0 0 0.108333 0 0 0 1 0"/>
<feBlend mode="normal" in2="BackgroundImageFix" result="effect1_dropShadow_14_1430"/>
<feBlend mode="normal" in="SourceGraphic" in2="effect1_dropShadow_14_1430" result="shape"/>
</filter>
<linearGradient id="paint0_linear_14_1430" x1="31.4999" y1="186" x2="72.9999" y2="26" gradientUnits="userSpaceOnUse">
<stop stop-color="#FCBF49"/>
<stop offset="1" stop-color="#FCBF49" stop-opacity="0"/>
</linearGradient>
<linearGradient id="paint1_linear_14_1430" x1="32.9999" y1="186" x2="69.4999" y2="5" gradientUnits="userSpaceOnUse">
<stop stop-color="#FFCF88"/>
<stop offset="1" stop-color="#FFCF88" stop-opacity="0"/>
</linearGradient>
</defs>
</svg>
