<svg width="224" height="86" viewBox="0 0 224 86" fill="none" xmlns="http://www.w3.org/2000/svg">
<g filter="url(#filter0_f_14_1447)">
<path d="M217.847 4.99986C206.497 24.9346 171.177 64.2944 120.703 62.2559C70.2283 60.2174 22.858 73.6758 5.48223 80.6598" stroke="url(#paint0_linear_14_1447)"/>
</g>
<path d="M217.847 4.99986C206.497 24.9346 171.177 64.2944 120.703 62.2559C70.2283 60.2174 22.858 73.6758 5.48223 80.6598" stroke="url(#paint1_linear_14_1447)"/>
<g filter="url(#filter1_d_14_1447)">
<path d="M74.1181 64.064C74.325 64.0891 74.4887 64.2511 74.5159 64.4578V64.4578C74.543 64.6645 74.4269 64.8633 74.2335 64.9411L68.9463 67.0679C67.7812 67.5366 66.487 66.7804 66.3232 65.5353V65.5353C66.1594 64.2902 67.2142 63.2251 68.4608 63.3765L74.1181 64.064Z" fill="#5A78F1"/>
</g>
<defs>
<filter id="filter0_f_14_1447" x="1.29578" y="0.752441" width="220.986" height="84.3713" filterUnits="userSpaceOnUse" color-interpolation-filters="sRGB">
<feFlood flood-opacity="0" result="BackgroundImageFix"/>
<feBlend mode="normal" in="SourceGraphic" in2="BackgroundImageFix" result="shape"/>
<feGaussianBlur stdDeviation="2" result="effect1_foregroundBlur_14_1447"/>
</filter>
<filter id="filter1_d_14_1447" x="60.3064" y="57.3621" width="20.2134" height="15.8459" filterUnits="userSpaceOnUse" color-interpolation-filters="sRGB">
<feFlood flood-opacity="0" result="BackgroundImageFix"/>
<feColorMatrix in="SourceAlpha" type="matrix" values="0 0 0 0 0 0 0 0 0 0 0 0 0 0 0 0 0 0 127 0" result="hardAlpha"/>
<feOffset/>
<feGaussianBlur stdDeviation="3"/>
<feComposite in2="hardAlpha" operator="out"/>
<feColorMatrix type="matrix" values="0 0 0 0 0.529167 0 0 0 0 0.62271 0 0 0 0 1 0 0 0 1 0"/>
<feBlend mode="normal" in2="BackgroundImageFix" result="effect1_dropShadow_14_1447"/>
<feBlend mode="normal" in="SourceGraphic" in2="effect1_dropShadow_14_1447" result="shape"/>
</filter>
<linearGradient id="paint0_linear_14_1447" x1="13.4999" y1="81" x2="184" y2="39" gradientUnits="userSpaceOnUse">
<stop stop-color="#497FF8"/>
<stop offset="1" stop-color="#497FF8" stop-opacity="0"/>
</linearGradient>
<linearGradient id="paint1_linear_14_1447" x1="7.99994" y1="75.5" x2="201" y2="32.5" gradientUnits="userSpaceOnUse">
<stop stop-color="#5E8FFF"/>
<stop offset="1" stop-color="#5E8FFF" stop-opacity="0"/>
</linearGradient>
</defs>
</svg>
