<svg width="299" height="206" viewBox="0 0 299 206" fill="none" xmlns="http://www.w3.org/2000/svg">
<g filter="url(#filter0_f_14_1451)">
<path d="M272.229 200.869C270.179 196.302 246.068 129.646 170.493 103.928C70.1063 69.7671 39.2434 24.9929 26.525 5.00053" stroke="url(#paint0_linear_14_1451)"/>
</g>
<path d="M272.229 200.869C269.852 194.755 246.068 129.646 170.493 103.928C70.1063 69.7671 39.2434 24.9929 26.525 5.00053" stroke="url(#paint1_linear_14_1451)"/>
<g filter="url(#filter1_d_14_1451)">
<path d="M233.723 143.245C233.623 143.062 233.66 142.835 233.812 142.692V142.692C233.964 142.55 234.194 142.529 234.369 142.641L239.173 145.707C240.232 146.382 240.369 147.875 239.451 148.732V148.732C238.533 149.589 237.054 149.35 236.452 148.248L233.723 143.245Z" fill="#EEDC3A"/>
</g>
<defs>
<filter id="filter0_f_14_1451" x="22.1031" y="0.732178" width="254.582" height="204.342" filterUnits="userSpaceOnUse" color-interpolation-filters="sRGB">
<feFlood flood-opacity="0" result="BackgroundImageFix"/>
<feBlend mode="normal" in="SourceGraphic" in2="BackgroundImageFix" result="shape"/>
<feGaussianBlur stdDeviation="2" result="effect1_foregroundBlur_14_1451"/>
</filter>
<filter id="filter1_d_14_1451" x="227.667" y="136.569" width="18.395" height="18.6801" filterUnits="userSpaceOnUse" color-interpolation-filters="sRGB">
<feFlood flood-opacity="0" result="BackgroundImageFix"/>
<feColorMatrix in="SourceAlpha" type="matrix" values="0 0 0 0 0 0 0 0 0 0 0 0 0 0 0 0 0 0 127 0" result="hardAlpha"/>
<feOffset/>
<feGaussianBlur stdDeviation="3"/>
<feComposite in2="hardAlpha" operator="out"/>
<feColorMatrix type="matrix" values="0 0 0 0 1 0 0 0 0 0.944167 0 0 0 0 0.441667 0 0 0 1 0"/>
<feBlend mode="normal" in2="BackgroundImageFix" result="effect1_dropShadow_14_1451"/>
<feBlend mode="normal" in="SourceGraphic" in2="effect1_dropShadow_14_1451" result="shape"/>
</filter>
<linearGradient id="paint0_linear_14_1451" x1="276" y1="201" x2="70" y2="42.0005" gradientUnits="userSpaceOnUse">
<stop stop-color="#FFF73B"/>
<stop offset="1" stop-color="#FFF73B" stop-opacity="0"/>
</linearGradient>
<linearGradient id="paint1_linear_14_1451" x1="275.5" y1="195.5" x2="68.5" y2="47.5005" gradientUnits="userSpaceOnUse">
<stop stop-color="#FFF978"/>
<stop offset="1" stop-color="#FFF978" stop-opacity="0"/>
</linearGradient>
</defs>
</svg>
