<svg width="148" height="160" viewBox="0 0 148 160" fill="none" xmlns="http://www.w3.org/2000/svg">
<g filter="url(#filter0_f_113_110)">
<path d="M5 37.873C16.361 32.0292 44.468 28.2894 66.0086 60.0812C92.9343 99.8211 129.181 117.896 143.665 121.243" stroke="url(#paint0_linear_113_110)"/>
</g>
<path d="M5 37.873C16.361 32.0292 44.468 28.2894 66.0086 60.0812C92.9343 99.8211 129.181 117.896 143.665 121.243" stroke="url(#paint1_linear_113_110)"/>
<g filter="url(#filter1_d_113_110)">
<path d="M103.498 100.542C103.368 100.379 103.365 100.149 103.49 99.982V99.982C103.615 99.8154 103.837 99.7547 104.03 99.8346L109.294 102.017C110.454 102.498 110.849 103.944 110.094 104.948V104.948C109.34 105.952 107.841 105.974 107.057 104.993L103.498 100.542Z" fill="#DC51CC"/>
</g>
<defs>
<filter id="filter0_f_113_110" x="0.771301" y="29.4392" width="147.006" height="96.2905" filterUnits="userSpaceOnUse" color-interpolation-filters="sRGB">
<feFlood flood-opacity="0" result="BackgroundImageFix"/>
<feBlend mode="normal" in="SourceGraphic" in2="BackgroundImageFix" result="shape"/>
<feGaussianBlur stdDeviation="2" result="effect1_foregroundBlur_113_110"/>
</filter>
<filter id="filter1_d_113_110" x="97.3981" y="93.7998" width="19.0827" height="17.915" filterUnits="userSpaceOnUse" color-interpolation-filters="sRGB">
<feFlood flood-opacity="0" result="BackgroundImageFix"/>
<feColorMatrix in="SourceAlpha" type="matrix" values="0 0 0 0 0 0 0 0 0 0 0 0 0 0 0 0 0 0 127 0" result="hardAlpha"/>
<feOffset/>
<feGaussianBlur stdDeviation="3"/>
<feComposite in2="hardAlpha" operator="out"/>
<feColorMatrix type="matrix" values="0 0 0 0 0.995833 0 0 0 0 0.327795 0 0 0 0 0.966788 0 0 0 1 0"/>
<feBlend mode="normal" in2="BackgroundImageFix" result="effect1_dropShadow_113_110"/>
<feBlend mode="normal" in="SourceGraphic" in2="effect1_dropShadow_113_110" result="shape"/>
</filter>
<linearGradient id="paint0_linear_113_110" x1="144" y1="120.5" x2="68" y2="53.0005" gradientUnits="userSpaceOnUse">
<stop stop-color="#FE2AC3"/>
<stop offset="1" stop-color="#FE2AC3" stop-opacity="0"/>
</linearGradient>
<linearGradient id="paint1_linear_113_110" x1="153" y1="116" x2="58.5" y2="44.0005" gradientUnits="userSpaceOnUse">
<stop stop-color="#FF64D4"/>
<stop offset="1" stop-color="#FF64D4" stop-opacity="0"/>
</linearGradient>
</defs>
</svg>
